<svg width="30" height="30" viewBox="0 0 30 30" fill="none" xmlns="http://www.w3.org/2000/svg">
<g clip-path="url(#clip0_1330_2250)">
<path d="M1.58519 14.3839C1.58451 16.8155 2.22484 19.1898 3.4424 21.2825L1.46875 28.4328L8.8433 26.5141C10.883 27.6159 13.1684 28.1932 15.4907 28.1934H15.4968C23.1634 28.1934 29.4041 22.0032 29.4074 14.3948C29.4089 10.7079 27.9632 7.24104 25.3366 4.63276C22.7104 2.02469 19.2177 0.58762 15.4963 0.585938C7.82878 0.585938 1.58847 6.77574 1.58531 14.3839" fill="url(#paint0_linear_1330_2250)"/>
<path d="M1.08971 14.3768C1.08892 16.896 1.75219 19.3552 3.01317 21.5228L0.96875 28.9294L8.60773 26.942C10.7125 28.0807 13.0823 28.681 15.4937 28.6819H15.4999C23.4415 28.6819 29.9065 22.2691 29.9099 14.3883C29.9112 10.569 28.4135 6.97746 25.693 4.27573C22.9722 1.57434 19.3546 0.0855548 15.4999 0.0839844C7.55692 0.0839844 1.09288 6.4959 1.08971 14.3768ZM5.63901 21.1495L5.35378 20.7003C4.15476 18.8085 3.5219 16.6225 3.5228 14.3777C3.52529 7.8273 8.89793 2.49799 15.5044 2.49799C18.7038 2.49933 21.7105 3.73684 23.972 5.98214C26.2333 8.22765 27.4777 11.2126 27.4769 14.3874C27.4739 20.9378 22.1012 26.2678 15.4999 26.2678H15.4951C13.3457 26.2667 11.2376 25.6939 9.3992 24.6116L8.96169 24.3541L4.42857 25.5334L5.63901 21.1495Z" fill="url(#paint1_linear_1330_2250)"/>
<path d="M11.9002 8.401C11.6305 7.80614 11.3466 7.79414 11.0901 7.7837C10.88 7.77473 10.6399 7.7754 10.4 7.7754C10.1599 7.7754 9.76975 7.86503 9.43998 8.22231C9.10987 8.57992 8.17969 9.44411 8.17969 11.2018C8.17969 12.9594 9.46994 14.6582 9.64981 14.8968C9.8299 15.135 12.1407 18.8574 15.8004 20.2894C18.8419 21.4795 19.4608 21.2428 20.1209 21.1831C20.7812 21.1236 22.2513 20.3191 22.5512 19.4849C22.8514 18.6507 22.8514 17.9357 22.7614 17.7863C22.6714 17.6375 22.4313 17.5481 22.0712 17.3695C21.7111 17.1909 19.9409 16.3265 19.6109 16.2072C19.2807 16.0881 19.0407 16.0287 18.8006 16.3864C18.5605 16.7436 17.871 17.5481 17.6608 17.7863C17.4509 18.0252 17.2407 18.0549 16.8808 17.8762C16.5205 17.6969 15.3609 17.3201 13.9852 16.1031C12.9148 15.1562 12.1922 13.9867 11.9822 13.629C11.7721 13.2719 11.9597 13.0782 12.1402 12.9002C12.302 12.7401 12.5004 12.483 12.6806 12.2745C12.8601 12.0659 12.92 11.917 13.0401 11.6787C13.1603 11.4403 13.1001 11.2316 13.0103 11.0529C12.92 10.8742 12.2204 9.10737 11.9002 8.401Z" fill="white"/>
</g>
<defs>
<linearGradient id="paint0_linear_1330_2250" x1="1398.4" y1="2785.27" x2="1398.4" y2="0.585938" gradientUnits="userSpaceOnUse">
<stop stop-color="#1FAF38"/>
<stop offset="1" stop-color="#60D669"/>
</linearGradient>
<linearGradient id="paint1_linear_1330_2250" x1="1448.02" y1="2884.63" x2="1448.02" y2="0.0839844" gradientUnits="userSpaceOnUse">
<stop stop-color="#F9F9F9"/>
<stop offset="1" stop-color="white"/>
</linearGradient>
<clipPath id="clip0_1330_2250">
<rect width="28.9411" height="28.9411" fill="white" transform="translate(0.96875 0.0839844)"/>
</clipPath>
</defs>
</svg>
